<mxfile host="65bd71144e">
    <diagram id="wsW8PB_hHRc0xUcXax_W" name="Page-1">
        <mxGraphModel dx="739" dy="473" grid="1" gridSize="10" guides="1" tooltips="1" connect="1" arrows="1" fold="1" page="1" pageScale="1" pageWidth="4681" pageHeight="3300" math="0" shadow="0">
            <root>
                <mxCell id="0"/>
                <mxCell id="1" parent="0"/>
                <mxCell id="48" style="edgeStyle=orthogonalEdgeStyle;html=1;entryX=0.5;entryY=0;entryDx=0;entryDy=0;curved=1;exitX=0.5;exitY=1;exitDx=0;exitDy=0;" parent="1" source="42" target="43" edge="1">
                    <mxGeometry relative="1" as="geometry"/>
                </mxCell>
                <mxCell id="49" style="edgeStyle=orthogonalEdgeStyle;html=1;entryX=0.5;entryY=0;entryDx=0;entryDy=0;curved=1;" parent="1" source="42" target="46" edge="1">
                    <mxGeometry relative="1" as="geometry"/>
                </mxCell>
                <mxCell id="50" style="edgeStyle=orthogonalEdgeStyle;html=1;entryX=0.5;entryY=0;entryDx=0;entryDy=0;curved=1;exitX=0.5;exitY=1;exitDx=0;exitDy=0;" parent="1" source="42" target="47" edge="1">
                    <mxGeometry relative="1" as="geometry"/>
                </mxCell>
                <mxCell id="42" value="意图识别" style="rounded=1;whiteSpace=wrap;html=1;fontSize=18;" parent="1" vertex="1">
                    <mxGeometry x="800" y="640" width="120" height="40" as="geometry"/>
                </mxCell>
                <mxCell id="52" style="edgeStyle=none;html=1;entryX=0.5;entryY=0;entryDx=0;entryDy=0;" parent="1" source="43" target="51" edge="1">
                    <mxGeometry relative="1" as="geometry"/>
                </mxCell>
                <mxCell id="43" value="不相关内容" style="rounded=1;whiteSpace=wrap;html=1;fontSize=18;" parent="1" vertex="1">
                    <mxGeometry x="439.92" y="760" width="120" height="40" as="geometry"/>
                </mxCell>
                <mxCell id="54" style="edgeStyle=none;html=1;entryX=0.5;entryY=0;entryDx=0;entryDy=0;" parent="1" source="46" target="53" edge="1">
                    <mxGeometry relative="1" as="geometry"/>
                </mxCell>
                <mxCell id="46" value="功能请求" style="rounded=1;whiteSpace=wrap;html=1;fontSize=18;" parent="1" vertex="1">
                    <mxGeometry x="800" y="760" width="120" height="40" as="geometry"/>
                </mxCell>
                <mxCell id="56" style="edgeStyle=none;html=1;entryX=0.5;entryY=0;entryDx=0;entryDy=0;" parent="1" source="47" target="55" edge="1">
                    <mxGeometry relative="1" as="geometry"/>
                </mxCell>
                <mxCell id="47" value="信息咨询" style="rounded=1;whiteSpace=wrap;html=1;fontSize=18;" parent="1" vertex="1">
                    <mxGeometry x="1159.92" y="760" width="120" height="40" as="geometry"/>
                </mxCell>
                <mxCell id="51" value="对话生成" style="rounded=1;whiteSpace=wrap;html=1;fontSize=18;" parent="1" vertex="1">
                    <mxGeometry x="439.92" y="880" width="120" height="40" as="geometry"/>
                </mxCell>
                <mxCell id="53" value="返回功能入口" style="rounded=1;whiteSpace=wrap;html=1;fontSize=18;" parent="1" vertex="1">
                    <mxGeometry x="800" y="880" width="120" height="40" as="geometry"/>
                </mxCell>
                <mxCell id="59" style="edgeStyle=none;html=1;entryX=0.5;entryY=0;entryDx=0;entryDy=0;" parent="1" source="55" target="57" edge="1">
                    <mxGeometry relative="1" as="geometry"/>
                </mxCell>
                <mxCell id="55" value="实体抽取" style="rounded=1;whiteSpace=wrap;html=1;fontSize=18;" parent="1" vertex="1">
                    <mxGeometry x="1159.92" y="880" width="120" height="40" as="geometry"/>
                </mxCell>
                <mxCell id="60" style="edgeStyle=none;html=1;entryX=0.5;entryY=0;entryDx=0;entryDy=0;" parent="1" source="57" target="58" edge="1">
                    <mxGeometry relative="1" as="geometry"/>
                </mxCell>
                <mxCell id="57" value="查询知识图谱" style="rounded=1;whiteSpace=wrap;html=1;fontSize=18;" parent="1" vertex="1">
                    <mxGeometry x="1159.92" y="1000" width="120" height="40" as="geometry"/>
                </mxCell>
                <mxCell id="58" value="对话生成" style="rounded=1;whiteSpace=wrap;html=1;fontSize=18;" parent="1" vertex="1">
                    <mxGeometry x="1159.92" y="1120" width="120" height="40" as="geometry"/>
                </mxCell>
                <mxCell id="88" value="&lt;div&gt;&lt;font style=&quot;color: rgb(0, 0, 0);&quot;&gt;疾病信息咨询&lt;/font&gt;&lt;/div&gt;&lt;font style=&quot;color: rgb(0, 0, 0);&quot;&gt;疾病症状解读&lt;br&gt;疾病治疗方案&lt;/font&gt;&lt;span style=&quot;color: rgb(0, 0, 0);&quot;&gt;咨询&lt;/span&gt;&lt;div&gt;&lt;font style=&quot;color: rgb(0, 0, 0);&quot;&gt;疾病预防建议&lt;span style=&quot;color: rgb(0, 0, 0);&quot;&gt;咨询&lt;/span&gt;&lt;br&gt;&lt;/font&gt;&lt;div&gt;&lt;font style=&quot;color: rgb(0, 0, 0);&quot;&gt;药物用法用量&lt;/font&gt;&lt;span style=&quot;background-color: transparent; color: rgb(0, 0, 0);&quot;&gt;咨询&lt;/span&gt;&lt;/div&gt;&lt;/div&gt;&lt;div&gt;&lt;font style=&quot;color: rgb(0, 0, 0);&quot;&gt;药物副作用&lt;/font&gt;&lt;span style=&quot;background-color: transparent; color: rgb(0, 0, 0);&quot;&gt;咨询&lt;/span&gt;&lt;/div&gt;&lt;div&gt;&lt;font style=&quot;color: rgb(0, 0, 0);&quot;&gt;药物禁忌&lt;/font&gt;&lt;span style=&quot;background-color: transparent; color: rgb(0, 0, 0);&quot;&gt;咨询&lt;/span&gt;&lt;/div&gt;&lt;div&gt;&lt;font style=&quot;color: rgb(0, 0, 0);&quot;&gt;检查项目咨询&lt;/font&gt;&lt;/div&gt;&lt;div&gt;&lt;font style=&quot;color: rgb(0, 0, 0);&quot;&gt;检查报告解读&lt;/font&gt;&lt;/div&gt;&lt;div&gt;&lt;font style=&quot;color: rgb(0, 0, 0);&quot;&gt;医生信息&lt;/font&gt;&lt;span style=&quot;background-color: transparent; color: rgb(0, 0, 0);&quot;&gt;咨询&lt;/span&gt;&lt;/div&gt;&lt;div&gt;&lt;font style=&quot;color: rgb(0, 0, 0);&quot;&gt;医保报销政策&lt;/font&gt;&lt;span style=&quot;background-color: transparent; color: rgb(0, 0, 0);&quot;&gt;咨询&lt;/span&gt;&lt;/div&gt;&lt;div&gt;&lt;font style=&quot;color: rgb(0, 0, 0);&quot;&gt;医院服务信息&lt;/font&gt;&lt;span style=&quot;background-color: transparent; color: rgb(0, 0, 0);&quot;&gt;咨询&lt;/span&gt;&lt;/div&gt;&lt;div&gt;&lt;font style=&quot;color: rgb(0, 0, 0);&quot;&gt;健康管理&lt;/font&gt;&lt;span style=&quot;background-color: transparent; color: rgb(0, 0, 0);&quot;&gt;咨询&lt;/span&gt;&lt;/div&gt;&lt;div&gt;&lt;font style=&quot;color: rgb(0, 0, 0);&quot;&gt;康复护理咨询&lt;/font&gt;&lt;/div&gt;&lt;div&gt;&lt;font style=&quot;color: rgb(0, 0, 0);&quot;&gt;疫苗接种咨询&lt;/font&gt;&lt;/div&gt;" style="text;html=1;align=left;verticalAlign=middle;resizable=0;points=[];autosize=1;strokeColor=none;fillColor=none;fontColor=#000000;fontSize=14;" parent="1" vertex="1">
                    <mxGeometry x="1290" y="590" width="140" height="270" as="geometry"/>
                </mxCell>
                <mxCell id="89" value="&lt;font style=&quot;color: rgb(0, 0, 0);&quot;&gt;挂号预约&lt;/font&gt;&lt;div&gt;&lt;font style=&quot;color: rgb(0, 0, 0);&quot;&gt;检查预约&lt;/font&gt;&lt;/div&gt;&lt;div&gt;&lt;font style=&quot;color: rgb(0, 0, 0);&quot;&gt;住院预约&lt;/font&gt;&lt;/div&gt;&lt;div&gt;&lt;font style=&quot;color: rgb(0, 0, 0);&quot;&gt;报告查询/下载&lt;/font&gt;&lt;/div&gt;&lt;div&gt;&lt;font style=&quot;color: rgb(0, 0, 0);&quot;&gt;费用支付/退费&lt;/font&gt;&lt;/div&gt;&lt;div&gt;&lt;font&gt;&lt;font style=&quot;&quot;&gt;&lt;font style=&quot;color: rgb(0, 0, 0);&quot;&gt;转诊、转院申请&lt;/font&gt;&lt;br&gt;&lt;/font&gt;&lt;font style=&quot;color: rgb(0, 0, 0);&quot;&gt;病例邮寄&lt;/font&gt;&lt;/font&gt;&lt;/div&gt;&lt;div&gt;&lt;span style=&quot;background-color: transparent;&quot;&gt;&lt;font style=&quot;color: rgb(0, 0, 0);&quot;&gt;个人信息修改&lt;/font&gt;&lt;/span&gt;&lt;/div&gt;&lt;div&gt;&lt;font style=&quot;color: rgb(0, 0, 0);&quot;&gt;就诊卡绑定/解绑&lt;/font&gt;&lt;/div&gt;&lt;div&gt;&lt;font style=&quot;color: rgb(0, 0, 0);&quot;&gt;&lt;div&gt;&lt;font style=&quot;color: rgb(0, 0, 0);&quot;&gt;服务投诉&lt;/font&gt;&lt;/div&gt;&lt;div&gt;&lt;span style=&quot;background-color: transparent;&quot;&gt;建议反馈&lt;/span&gt;&lt;/div&gt;&lt;div&gt;&lt;span style=&quot;color: rgb(0, 0, 0);&quot;&gt;系统故障反馈&lt;/span&gt;&lt;span style=&quot;background-color: transparent;&quot;&gt;&lt;/span&gt;&lt;/div&gt;&lt;/font&gt;&lt;/div&gt;" style="text;html=1;align=left;verticalAlign=middle;resizable=0;points=[];autosize=1;strokeColor=none;fillColor=none;fontSize=14;" parent="1" vertex="1">
                    <mxGeometry x="930" y="730" width="130" height="220" as="geometry"/>
                </mxCell>
                <mxCell id="94" value="" style="group" parent="1" vertex="1" connectable="0">
                    <mxGeometry x="379.91999999999996" y="570" width="240" height="130" as="geometry"/>
                </mxCell>
                <mxCell id="25" value="" style="rounded=0;whiteSpace=wrap;html=1;strokeWidth=2;" parent="94" vertex="1">
                    <mxGeometry width="240" height="130" as="geometry"/>
                </mxCell>
                <mxCell id="29" value="xxxxxxxxxxxxxxxx" style="rounded=1;whiteSpace=wrap;html=1;fillColor=none;strokeColor=light-dark(#3399ff, #5c79a3);fontColor=light-dark(#3399ff, #ededed);fontSize=14;textShadow=1;" parent="94" vertex="1">
                    <mxGeometry x="70" y="20" width="130" height="40" as="geometry"/>
                </mxCell>
                <mxCell id="33" value="" style="sketch=0;outlineConnect=0;fillColor=#3399FF;strokeColor=default;dashed=0;verticalLabelPosition=bottom;verticalAlign=top;align=center;html=1;fontSize=12;fontStyle=0;aspect=fixed;pointerEvents=1;shape=mxgraph.aws4.user;strokeWidth=1;" parent="94" vertex="1">
                    <mxGeometry x="9.9969696969697" y="20" width="40" height="40" as="geometry"/>
                </mxCell>
                <mxCell id="36" value="" style="sketch=0;points=[[0,0,0],[0.25,0,0],[0.5,0,0],[0.75,0,0],[1,0,0],[0,1,0],[0.25,1,0],[0.5,1,0],[0.75,1,0],[1,1,0],[0,0.25,0],[0,0.5,0],[0,0.75,0],[1,0.25,0],[1,0.5,0],[1,0.75,0]];outlineConnect=0;dashed=0;verticalLabelPosition=bottom;verticalAlign=top;align=center;html=1;fontSize=12;fontStyle=0;aspect=fixed;shape=mxgraph.aws4.resourceIcon;resIcon=mxgraph.aws4.robotics;fillColor=none;strokeColor=#9673a6;" parent="94" vertex="1">
                    <mxGeometry x="179.99818181818182" y="70" width="50" height="50" as="geometry"/>
                </mxCell>
                <mxCell id="39" value="" style="sketch=0;outlineConnect=0;fillColor=light-dark(#9673a6, #392f3f);strokeColor=#9673a6;dashed=0;verticalLabelPosition=bottom;verticalAlign=top;align=center;html=1;fontSize=12;fontStyle=0;aspect=fixed;pointerEvents=1;shape=mxgraph.aws4.recover;" parent="94" vertex="1">
                    <mxGeometry x="140.00030303030303" y="80" width="30" height="30" as="geometry"/>
                </mxCell>
                <mxCell id="41" style="edgeStyle=orthogonalEdgeStyle;html=1;exitX=1;exitY=0.5;exitDx=0;exitDy=0;dashed=1;curved=1;" parent="1" source="29" edge="1">
                    <mxGeometry relative="1" as="geometry">
                        <mxPoint x="800" y="660" as="targetPoint"/>
                        <Array as="points">
                            <mxPoint x="710" y="610"/>
                            <mxPoint x="710" y="660"/>
                        </Array>
                    </mxGeometry>
                </mxCell>
                <mxCell id="107" value="" style="group" parent="1" vertex="1" connectable="0">
                    <mxGeometry x="379.92" y="1000" width="240" height="130" as="geometry"/>
                </mxCell>
                <mxCell id="96" value="" style="rounded=0;whiteSpace=wrap;html=1;strokeWidth=2;" parent="107" vertex="1">
                    <mxGeometry width="240" height="130" as="geometry"/>
                </mxCell>
                <mxCell id="97" value="xxxxxxxxxxxxxxxx" style="rounded=1;whiteSpace=wrap;html=1;fillColor=none;strokeColor=light-dark(#3399ff, #5c79a3);fontColor=light-dark(#3399ff, #ededed);fontSize=14;textShadow=1;" parent="107" vertex="1">
                    <mxGeometry x="70" y="20" width="130" height="40" as="geometry"/>
                </mxCell>
                <mxCell id="98" value="" style="sketch=0;outlineConnect=0;fillColor=#3399FF;strokeColor=default;dashed=0;verticalLabelPosition=bottom;verticalAlign=top;align=center;html=1;fontSize=12;fontStyle=0;aspect=fixed;pointerEvents=1;shape=mxgraph.aws4.user;strokeWidth=1;" parent="107" vertex="1">
                    <mxGeometry x="9.9969696969697" y="20" width="40" height="40" as="geometry"/>
                </mxCell>
                <mxCell id="99" value="" style="sketch=0;points=[[0,0,0],[0.25,0,0],[0.5,0,0],[0.75,0,0],[1,0,0],[0,1,0],[0.25,1,0],[0.5,1,0],[0.75,1,0],[1,1,0],[0,0.25,0],[0,0.5,0],[0,0.75,0],[1,0.25,0],[1,0.5,0],[1,0.75,0]];outlineConnect=0;dashed=0;verticalLabelPosition=bottom;verticalAlign=top;align=center;html=1;fontSize=12;fontStyle=0;aspect=fixed;shape=mxgraph.aws4.resourceIcon;resIcon=mxgraph.aws4.robotics;fillColor=none;strokeColor=#9673a6;" parent="107" vertex="1">
                    <mxGeometry x="179.99818181818182" y="70" width="50" height="50" as="geometry"/>
                </mxCell>
                <mxCell id="101" value="xxxxxxxxxxxxxxxx" style="rounded=1;whiteSpace=wrap;html=1;fillColor=none;strokeColor=#9673a6;fontSize=14;textShadow=1;fontColor=light-dark(#9673a6, #ededed);" parent="107" vertex="1">
                    <mxGeometry x="40" y="75" width="130" height="40" as="geometry"/>
                </mxCell>
                <mxCell id="69" style="edgeStyle=orthogonalEdgeStyle;html=1;entryX=0;entryY=0.5;entryDx=0;entryDy=0;curved=1;dashed=1;exitX=0.5;exitY=1;exitDx=0;exitDy=0;" parent="1" source="51" target="101" edge="1">
                    <mxGeometry relative="1" as="geometry">
                        <Array as="points">
                            <mxPoint x="499.92" y="960"/>
                            <mxPoint x="359.92" y="960"/>
                            <mxPoint x="359.92" y="1095"/>
                        </Array>
                        <mxPoint x="456.2836363636365" y="1135" as="targetPoint"/>
                    </mxGeometry>
                </mxCell>
                <mxCell id="109" value="" style="group" parent="1" vertex="1" connectable="0">
                    <mxGeometry x="740" y="1000" width="240" height="130" as="geometry"/>
                </mxCell>
                <mxCell id="102" value="" style="rounded=0;whiteSpace=wrap;html=1;strokeWidth=2;" parent="109" vertex="1">
                    <mxGeometry width="240" height="130" as="geometry"/>
                </mxCell>
                <mxCell id="103" value="xxxxxxxxxxxxxxxx" style="rounded=1;whiteSpace=wrap;html=1;fillColor=none;strokeColor=light-dark(#3399ff, #5c79a3);fontColor=light-dark(#3399ff, #ededed);fontSize=14;textShadow=1;" parent="109" vertex="1">
                    <mxGeometry x="70" y="20" width="130" height="40" as="geometry"/>
                </mxCell>
                <mxCell id="104" value="" style="sketch=0;outlineConnect=0;fillColor=#3399FF;strokeColor=default;dashed=0;verticalLabelPosition=bottom;verticalAlign=top;align=center;html=1;fontSize=12;fontStyle=0;aspect=fixed;pointerEvents=1;shape=mxgraph.aws4.user;strokeWidth=1;" parent="109" vertex="1">
                    <mxGeometry x="9.9969696969697" y="20" width="40" height="40" as="geometry"/>
                </mxCell>
                <mxCell id="105" value="" style="sketch=0;points=[[0,0,0],[0.25,0,0],[0.5,0,0],[0.75,0,0],[1,0,0],[0,1,0],[0.25,1,0],[0.5,1,0],[0.75,1,0],[1,1,0],[0,0.25,0],[0,0.5,0],[0,0.75,0],[1,0.25,0],[1,0.5,0],[1,0.75,0]];outlineConnect=0;dashed=0;verticalLabelPosition=bottom;verticalAlign=top;align=center;html=1;fontSize=12;fontStyle=0;aspect=fixed;shape=mxgraph.aws4.resourceIcon;resIcon=mxgraph.aws4.robotics;fillColor=none;strokeColor=#9673a6;" parent="109" vertex="1">
                    <mxGeometry x="179.99818181818182" y="70" width="50" height="50" as="geometry"/>
                </mxCell>
                <mxCell id="106" value="xxxxxxxxxxxxxxxx" style="rounded=1;whiteSpace=wrap;html=1;fillColor=none;strokeColor=#9673a6;fontSize=14;textShadow=1;fontColor=light-dark(#9673a6, #ededed);" parent="109" vertex="1">
                    <mxGeometry x="40" y="75" width="130" height="40" as="geometry"/>
                </mxCell>
                <mxCell id="108" value="" style="rounded=1;whiteSpace=wrap;html=1;fillColor=#e1d5e7;strokeColor=#9673a6;shadow=1;" parent="109" vertex="1">
                    <mxGeometry x="45" y="80" width="120" height="30" as="geometry"/>
                </mxCell>
                <mxCell id="85" style="edgeStyle=orthogonalEdgeStyle;html=1;entryX=0;entryY=0.5;entryDx=0;entryDy=0;curved=1;dashed=1;" parent="1" source="53" target="106" edge="1">
                    <mxGeometry relative="1" as="geometry">
                        <mxPoint x="860" y="1000" as="targetPoint"/>
                        <Array as="points">
                            <mxPoint x="860" y="960"/>
                            <mxPoint x="720" y="960"/>
                            <mxPoint x="720" y="1095"/>
                        </Array>
                    </mxGeometry>
                </mxCell>
                <mxCell id="116" value="" style="group" parent="1" vertex="1" connectable="0">
                    <mxGeometry x="1099.92" y="1200" width="240" height="160" as="geometry"/>
                </mxCell>
                <mxCell id="111" value="" style="rounded=0;whiteSpace=wrap;html=1;strokeWidth=2;" parent="116" vertex="1">
                    <mxGeometry width="240" height="160" as="geometry"/>
                </mxCell>
                <mxCell id="112" value="xxxxxxxxxxxxxxxx" style="rounded=1;whiteSpace=wrap;html=1;fillColor=none;strokeColor=light-dark(#3399ff, #5c79a3);fontColor=light-dark(#3399ff, #ededed);fontSize=14;textShadow=1;" parent="116" vertex="1">
                    <mxGeometry x="70" y="20" width="130" height="40" as="geometry"/>
                </mxCell>
                <mxCell id="113" value="" style="sketch=0;outlineConnect=0;fillColor=#3399FF;strokeColor=default;dashed=0;verticalLabelPosition=bottom;verticalAlign=top;align=center;html=1;fontSize=12;fontStyle=0;aspect=fixed;pointerEvents=1;shape=mxgraph.aws4.user;strokeWidth=1;" parent="116" vertex="1">
                    <mxGeometry x="9.9969696969697" y="20" width="40" height="40" as="geometry"/>
                </mxCell>
                <mxCell id="114" value="" style="sketch=0;points=[[0,0,0],[0.25,0,0],[0.5,0,0],[0.75,0,0],[1,0,0],[0,1,0],[0.25,1,0],[0.5,1,0],[0.75,1,0],[1,1,0],[0,0.25,0],[0,0.5,0],[0,0.75,0],[1,0.25,0],[1,0.5,0],[1,0.75,0]];outlineConnect=0;dashed=0;verticalLabelPosition=bottom;verticalAlign=top;align=center;html=1;fontSize=12;fontStyle=0;aspect=fixed;shape=mxgraph.aws4.resourceIcon;resIcon=mxgraph.aws4.robotics;fillColor=none;strokeColor=#9673a6;" parent="116" vertex="1">
                    <mxGeometry x="179.99818181818182" y="70" width="50" height="50" as="geometry"/>
                </mxCell>
                <mxCell id="115" value="xxxxxxxxxxxxxxxx&lt;div&gt;&lt;span style=&quot;color: rgb(150, 115, 166);&quot;&gt;xxxxxxxxxxxxxxxx&lt;/span&gt;&lt;/div&gt;&lt;div&gt;&lt;span style=&quot;color: rgb(150, 115, 166);&quot;&gt;&lt;span style=&quot;color: rgb(150, 115, 166);&quot;&gt;xxxxxxxxxxxxxxxx&lt;/span&gt;&lt;/span&gt;&lt;/div&gt;" style="rounded=1;whiteSpace=wrap;html=1;fillColor=none;strokeColor=#9673a6;fontSize=14;textShadow=1;fontColor=light-dark(#9673a6, #ededed);" parent="116" vertex="1">
                    <mxGeometry x="40" y="80" width="130" height="60" as="geometry"/>
                </mxCell>
                <mxCell id="76" style="edgeStyle=orthogonalEdgeStyle;html=1;entryX=0;entryY=0.5;entryDx=0;entryDy=0;dashed=1;curved=1;" parent="1" source="58" target="115" edge="1">
                    <mxGeometry relative="1" as="geometry">
                        <Array as="points">
                            <mxPoint x="1220" y="1180"/>
                            <mxPoint x="1060" y="1180"/>
                            <mxPoint x="1060" y="1310"/>
                        </Array>
                        <mxPoint x="1176.2799999999993" y="1390" as="targetPoint"/>
                    </mxGeometry>
                </mxCell>
                <mxCell id="117" value="&lt;div style=&quot;font-size: 14px;&quot;&gt;&lt;font style=&quot;color: rgb(0, 0, 0);&quot;&gt;[&quot;疾病&quot;]&lt;/font&gt;&lt;/div&gt;&lt;font style=&quot;font-size: 14px;&quot;&gt;&lt;font style=&quot;color: rgb(0, 0, 0);&quot;&gt;&lt;font style=&quot;&quot;&gt;[&quot;疾病&quot;,&quot;&lt;/font&gt;症状&lt;font style=&quot;&quot;&gt;&quot;,&quot;&lt;span style=&quot;color: rgb(0, 0, 0);&quot;&gt;发作部位&lt;/span&gt;&quot;,&quot;&lt;/font&gt;持续时间&lt;font style=&quot;&quot;&gt;&quot;&lt;/font&gt;&lt;font style=&quot;&quot;&gt;]&lt;/font&gt;&lt;/font&gt;&lt;br&gt;&lt;font style=&quot;color: light-dark(rgb(0, 0, 0), rgb(237, 237, 237));&quot;&gt;[&quot;疾病&quot;&lt;span style=&quot;color: rgb(0, 0, 0);&quot;&gt;,&quot;药物&quot;&lt;/span&gt;&lt;span style=&quot;color: rgb(0, 0, 0);&quot;&gt;,&quot;用药时间&quot;&lt;/span&gt;,&quot;处理方式&quot;]&lt;br&gt;&lt;/font&gt;&lt;/font&gt;&lt;div&gt;&lt;font style=&quot;font-size: 14px;&quot;&gt;&lt;font style=&quot;color: rgb(0, 0, 0);&quot;&gt;[&quot;疾病&quot;,&quot;风险因素&quot;]&lt;/font&gt;&lt;br&gt;&lt;/font&gt;&lt;/div&gt;&lt;div&gt;&lt;font style=&quot;font-size: 14px;&quot;&gt;&lt;font style=&quot;color: rgb(0, 0, 0);&quot;&gt;[&quot;药物&quot;]&lt;/font&gt;&lt;/font&gt;&lt;/div&gt;&lt;div&gt;&lt;font style=&quot;font-size: 14px;&quot;&gt;&lt;font style=&quot;color: rgb(0, 0, 0);&quot;&gt;[&quot;药物&quot;,&quot;&lt;span style=&quot;color: rgb(0, 0, 0);&quot;&gt;人群类别&lt;/span&gt;&quot;,&quot;疾病&quot;]&lt;/font&gt;&lt;br&gt;&lt;/font&gt;&lt;/div&gt;&lt;div&gt;&lt;font style=&quot;font-size: 14px;&quot;&gt;&lt;font style=&quot;color: rgb(0, 0, 0);&quot;&gt;[&quot;检查&quot;,&quot;疾病&quot;]&lt;/font&gt;&lt;br&gt;&lt;/font&gt;&lt;/div&gt;&lt;div&gt;&lt;font&gt;&lt;font style=&quot;color: light-dark(rgb(0, 0, 0), rgb(237, 237, 237)); font-size: 14px;&quot;&gt;[&quot;&lt;/font&gt;&lt;span style=&quot;font-size: 14px; background-color: transparent;&quot;&gt;&lt;font style=&quot;color: rgb(0, 0, 0);&quot;&gt;检查&lt;/font&gt;&lt;/span&gt;&lt;span style=&quot;color: light-dark(rgb(0, 0, 0), rgb(237, 237, 237)); font-size: 14px; background-color: transparent;&quot;&gt;&quot;,&quot;检查结果&quot;]&lt;/span&gt;&lt;/font&gt;&lt;/div&gt;&lt;div&gt;&lt;font&gt;&lt;font style=&quot;font-size: 14px;&quot;&gt;&lt;font style=&quot;color: rgb(0, 0, 0);&quot;&gt;[&quot;医生姓名&quot;,&quot;科室&quot;,&quot;职称&lt;/font&gt;&lt;/font&gt;&lt;span style=&quot;color: light-dark(rgb(0, 0, 0), rgb(237, 237, 237)); font-size: 14px; background-color: transparent;&quot;&gt;&quot;]&lt;/span&gt;&lt;/font&gt;&lt;/div&gt;&lt;div&gt;&lt;font style=&quot;font-size: 14px; color: rgb(0, 0, 0);&quot;&gt;&lt;font style=&quot;color: rgb(0, 0, 0);&quot;&gt;[&quot;报销类型&quot;,&quot;所需材料&quot;]&lt;/font&gt;&lt;br&gt;&lt;/font&gt;&lt;/div&gt;&lt;div&gt;&lt;font style=&quot;font-size: 14px; color: rgb(0, 0, 0);&quot;&gt;[&quot;医院&quot;,&quot;科室&quot;,&quot;服务类型&quot;,&quot;地址&quot;]&lt;br&gt;&lt;/font&gt;&lt;/div&gt;&lt;div&gt;&lt;font style=&quot;font-size: 14px; color: rgb(0, 0, 0);&quot;&gt;&lt;font style=&quot;color: rgb(0, 0, 0);&quot;&gt;[&quot;疾病&quot;,&quot;健康目标&quot;]&lt;/font&gt;&lt;br&gt;&lt;/font&gt;&lt;/div&gt;&lt;div&gt;&lt;font style=&quot;font-size: 14px;&quot;&gt;&lt;font style=&quot;color: rgb(0, 0, 0);&quot;&gt;[&quot;疾病&quot;,&quot;&lt;span style=&quot;color: rgb(0, 0, 0);&quot;&gt;手术类型&lt;/span&gt;&quot;,&quot;护理方式&quot;]&lt;/font&gt;&lt;br&gt;&lt;/font&gt;&lt;/div&gt;&lt;div&gt;&lt;font style=&quot;font-size: 14px;&quot;&gt;&lt;span style=&quot;&quot;&gt;&lt;font style=&quot;color: rgb(0, 0, 0);&quot;&gt;[&quot;疫苗&quot;,&quot;&lt;/font&gt;&lt;/span&gt;&lt;span style=&quot;color: rgb(0, 0, 0);&quot;&gt;人群类别&lt;/span&gt;&lt;span style=&quot;&quot;&gt;&lt;font style=&quot;color: rgb(0, 0, 0);&quot;&gt;&quot;,&quot;接种剂次&quot;,&quot;接种间隔时间&quot;]&lt;/font&gt;&lt;/span&gt;&lt;br&gt;&lt;/font&gt;&lt;/div&gt;" style="text;html=1;align=left;verticalAlign=middle;resizable=0;points=[];autosize=1;labelBorderColor=none;fontColor=#000000;" parent="1" vertex="1">
                    <mxGeometry x="1470" y="880" width="310" height="250" as="geometry"/>
                </mxCell>
                <mxCell id="118" style="edgeStyle=none;html=1;entryX=0.001;entryY=0.501;entryDx=0;entryDy=0;entryPerimeter=0;fontColor=#000000;" parent="1" source="119" target="117" edge="1">
                    <mxGeometry relative="1" as="geometry">
                        <mxPoint x="1389.92" y="1015.1290070367475" as="sourcePoint"/>
                    </mxGeometry>
                </mxCell>
                <mxCell id="119" value="&lt;div&gt;&lt;font style=&quot;color: rgb(0, 0, 0);&quot;&gt;疾病信息咨询&lt;/font&gt;&lt;/div&gt;&lt;font style=&quot;color: rgb(0, 0, 0);&quot;&gt;&lt;font style=&quot;color: rgb(0, 0, 0);&quot;&gt;疾病症状解读&lt;br&gt;疾病治疗方案&lt;/font&gt;&lt;span style=&quot;color: rgb(0, 0, 0);&quot;&gt;咨询&lt;/span&gt;&lt;/font&gt;&lt;div&gt;&lt;font&gt;&lt;font style=&quot;color: rgb(0, 0, 0);&quot;&gt;疾病预防建议&lt;span style=&quot;color: rgb(0, 0, 0);&quot;&gt;咨询&lt;/span&gt;&lt;br&gt;&lt;/font&gt;&lt;/font&gt;&lt;div&gt;&lt;font style=&quot;color: rgb(0, 0, 0);&quot;&gt;&lt;font style=&quot;color: rgb(0, 0, 0);&quot;&gt;药物使用&lt;/font&gt;&lt;/font&gt;&lt;span style=&quot;background-color: transparent;&quot;&gt;咨询&lt;/span&gt;&lt;/div&gt;&lt;/div&gt;&lt;div&gt;&lt;font style=&quot;color: rgb(0, 0, 0);&quot;&gt;&lt;font style=&quot;color: rgb(0, 0, 0);&quot;&gt;药物禁忌&lt;/font&gt;&lt;span style=&quot;background-color: transparent; color: rgb(0, 0, 0);&quot;&gt;咨询&lt;/span&gt;&lt;/font&gt;&lt;/div&gt;&lt;div&gt;&lt;font style=&quot;color: rgb(0, 0, 0);&quot;&gt;检查项目咨询&lt;/font&gt;&lt;/div&gt;&lt;div&gt;&lt;font style=&quot;color: rgb(0, 0, 0);&quot;&gt;检查报告解读&lt;/font&gt;&lt;/div&gt;&lt;div&gt;&lt;font style=&quot;color: rgb(0, 0, 0);&quot;&gt;&lt;font style=&quot;color: rgb(0, 0, 0);&quot;&gt;医生信息&lt;/font&gt;&lt;span style=&quot;background-color: transparent; color: rgb(0, 0, 0);&quot;&gt;咨询&lt;/span&gt;&lt;/font&gt;&lt;/div&gt;&lt;div&gt;&lt;font style=&quot;color: rgb(0, 0, 0);&quot;&gt;&lt;font style=&quot;color: rgb(0, 0, 0);&quot;&gt;医保报销政策&lt;/font&gt;&lt;span style=&quot;background-color: transparent; color: rgb(0, 0, 0);&quot;&gt;咨询&lt;/span&gt;&lt;/font&gt;&lt;/div&gt;&lt;div&gt;&lt;font style=&quot;color: rgb(0, 0, 0);&quot;&gt;&lt;font style=&quot;color: rgb(0, 0, 0);&quot;&gt;医院服务信息&lt;/font&gt;&lt;span style=&quot;background-color: transparent; color: rgb(0, 0, 0);&quot;&gt;咨询&lt;/span&gt;&lt;/font&gt;&lt;/div&gt;&lt;div&gt;&lt;font style=&quot;color: rgb(0, 0, 0);&quot;&gt;&lt;font style=&quot;color: rgb(0, 0, 0);&quot;&gt;健康管理&lt;/font&gt;&lt;span style=&quot;background-color: transparent; color: rgb(0, 0, 0);&quot;&gt;咨询&lt;/span&gt;&lt;/font&gt;&lt;/div&gt;&lt;div&gt;&lt;font style=&quot;color: rgb(0, 0, 0);&quot;&gt;康复护理咨询&lt;/font&gt;&lt;/div&gt;&lt;div&gt;&lt;font style=&quot;color: rgb(0, 0, 0);&quot;&gt;疫苗接种咨询&lt;/font&gt;&lt;/div&gt;" style="text;html=1;align=left;verticalAlign=middle;resizable=0;points=[];autosize=1;strokeColor=none;fillColor=none;fontColor=#000000;fontSize=14;" parent="1" vertex="1">
                    <mxGeometry x="1290" y="880" width="140" height="250" as="geometry"/>
                </mxCell>
            </root>
        </mxGraphModel>
    </diagram>
</mxfile>